<svg width="24" height="24" viewBox="0 0 24 24" fill="none" xmlns="http://www.w3.org/2000/svg">
<mask id="mask0_101_218" style="mask-type:alpha" maskUnits="userSpaceOnUse" x="0" y="0" width="24" height="24">
<rect width="24" height="24" fill="#D9D9D9"/>
</mask>
<g mask="url(#mask0_101_218)">
<path d="M5 23.6998C4.45 23.6998 3.97917 23.504 3.5875 23.1123C3.19583 22.7206 3 22.2498 3 21.6998V7.6998C3 7.1498 3.19583 6.67897 3.5875 6.2873C3.97917 5.89564 4.45 5.6998 5 5.6998H13.925L11.925 7.6998H5V21.6998H19V14.7498L21 12.7498V21.6998C21 22.2498 20.8042 22.7206 20.4125 23.1123C20.0208 23.504 19.55 23.6998 19 23.6998H5ZM16.175 6.2748L17.6 7.6748L11 14.2748V15.6998H12.4L19.025 9.0748L20.45 10.4748L13.25 17.6998H9V13.4498L16.175 6.2748ZM20.45 10.4748L16.175 6.2748L18.675 3.7748C19.075 3.3748 19.5542 3.1748 20.1125 3.1748C20.6708 3.1748 21.1417 3.3748 21.525 3.7748L22.925 5.1998C23.3083 5.58314 23.5 6.0498 23.5 6.5998C23.5 7.1498 23.3083 7.61647 22.925 7.9998L20.45 10.4748Z" fill="#8C1F18"/>
</g>
</svg>
