<svg width="23" height="20" viewBox="0 0 23 20" fill="none" xmlns="http://www.w3.org/2000/svg">
<path d="M4.0931 19.2334C3.80977 19.2334 3.55144 19.1448 3.3181 18.9677C3.08477 18.7905 2.92644 18.5586 2.8431 18.2717L0.0431034 8.04767C-0.0402299 7.81147 -0.00272989 7.59214 0.155603 7.38968C0.313937 7.18722 0.526437 7.08599 0.793103 7.08599H5.8431L10.2431 0.455528C10.3264 0.320557 10.4431 0.210893 10.5931 0.126536C10.7431 0.0421785 10.9014 0 11.0681 0C11.2348 0 11.3931 0.0421785 11.5431 0.126536C11.6931 0.210893 11.8098 0.320557 11.8931 0.455528L16.2931 7.08599H21.3931C21.6598 7.08599 21.8723 7.18722 22.0306 7.38968C22.1889 7.59214 22.2264 7.81147 22.1431 8.04767L19.3431 18.2717C19.2598 18.5586 19.1014 18.7905 18.8681 18.9677C18.6348 19.1448 18.3764 19.2334 18.0931 19.2334H4.0931ZM4.5931 17.2088H17.5931L19.7931 9.11057H2.3931L4.5931 17.2088ZM11.0931 15.1843C11.6431 15.1843 12.1139 14.986 12.5056 14.5896C12.8973 14.1931 13.0931 13.7165 13.0931 13.1597C13.0931 12.6029 12.8973 12.1263 12.5056 11.7299C12.1139 11.3334 11.6431 11.1351 11.0931 11.1351C10.5431 11.1351 10.0723 11.3334 9.6806 11.7299C9.28894 12.1263 9.0931 12.6029 9.0931 13.1597C9.0931 13.7165 9.28894 14.1931 9.6806 14.5896C10.0723 14.986 10.5431 15.1843 11.0931 15.1843ZM8.2681 7.08599H13.8931L11.0681 2.8344L8.2681 7.08599Z" fill="#8C1F18"/>
</svg>
