<?xml version="1.0" standalone="no"?>
<!DOCTYPE svg PUBLIC "-//W3C//DTD SVG 20010904//EN"
 "http://www.w3.org/TR/2001/REC-SVG-20010904/DTD/svg10.dtd">
<svg version="1.0" xmlns="http://www.w3.org/2000/svg"
 width="480.000000pt" height="480.000000pt" viewBox="0 0 480.000000 480.000000"
 preserveAspectRatio="xMidYMid meet">

<g transform="translate(0.000000,480.000000) scale(0.100000,-0.100000)"
fill="#d9d9d9" stroke="none">
<path d="M2420 3889 c0 -5 14 -50 30 -99 36 -107 37 -119 6 -195 -18 -42 -22
-63 -15 -72 13 -15 32 -218 23 -256 -5 -23 -29 -47 -47 -47 -3 0 -6 57 -9 128
-3 98 -7 133 -20 151 -13 18 -16 39 -13 85 3 34 7 113 9 176 l4 115 -24 -70
c-13 -38 -46 -116 -74 -172 -48 -99 -51 -102 -92 -113 -181 -49 -360 -128
-463 -207 -5 -5 -30 -21 -55 -37 -50 -33 -51 -31 45 -60 28 -9 39 -14 25 -11
-14 2 -72 9 -130 15 -197 20 -295 31 -328 37 l-33 5 44 -68 c25 -38 67 -112
95 -164 27 -53 74 -131 104 -175 63 -94 126 -184 142 -205 7 -9 11 -61 11
-132 0 -64 2 -115 6 -113 3 2 13 -33 23 -78 11 -45 25 -96 32 -114 10 -23 14
-82 14 -204 l0 -171 85 -82 c47 -44 85 -87 85 -95 0 -12 -154 126 -171 154 -4
6 -9 73 -12 150 -4 114 -9 147 -26 180 -33 65 -52 180 -58 348 l-6 159 -76
106 -75 106 -22 -50 c-59 -136 -90 -359 -75 -546 9 -102 37 -240 60 -293 64
-146 118 -241 181 -319 29 -35 137 -141 170 -166 18 -14 38 -30 44 -35 22 -21
123 -82 188 -114 55 -28 73 -42 93 -78 l24 -44 -32 6 c-59 13 -211 92 -299
155 -244 174 -410 431 -474 730 -23 112 -21 368 4 485 22 102 51 205 61 220
12 16 33 96 27 102 -5 5 -25 -37 -53 -112 -72 -193 -100 -462 -68 -645 17 -98
19 -123 6 -115 -20 12 -83 234 -95 330 -1 17 -4 1 -5 -34 -1 -65 17 -163 50
-264 11 -31 19 -63 19 -70 0 -39 145 -313 204 -386 28 -34 143 -149 181 -181
107 -89 318 -208 444 -250 61 -20 95 -45 85 -62 -3 -5 1 -8 8 -8 7 0 18 -8 24
-17 17 -29 95 -173 131 -243 l33 -65 -5 75 c-2 41 -6 154 -7 250 l-3 175 40 0
40 0 -3 -200 c-2 -110 -8 -220 -12 -245 -5 -25 -8 -46 -7 -47 1 -1 20 38 42
85 54 117 100 199 138 244 26 30 46 42 102 58 96 27 236 99 332 169 269 197
453 482 508 786 16 86 20 211 5 165 -4 -14 -9 -43 -9 -65 -1 -22 -7 -61 -14
-87 -11 -42 -12 -23 -13 165 0 168 -4 228 -18 287 -33 137 -100 319 -113 306
-3 -3 7 -36 21 -73 70 -184 91 -323 83 -548 -5 -133 -11 -178 -35 -267 -89
-324 -324 -613 -611 -750 -84 -40 -172 -71 -179 -63 -13 12 71 85 137 120 180
95 311 208 426 370 147 206 205 395 205 665 0 185 -33 371 -83 466 l-14 27
-47 -65 c-72 -102 -101 -120 -36 -23 73 109 161 248 200 315 23 41 56 92 72
113 17 21 27 41 24 44 -3 4 -54 1 -113 -5 -60 -7 -164 -14 -233 -17 -118 -4
-122 -4 -75 9 48 12 49 13 24 23 -14 6 -66 37 -115 69 -144 93 -244 138 -433
192 -16 5 -35 28 -57 71 -35 66 -94 208 -114 274 -11 36 -20 48 -20 26z m-30
-513 c0 -89 -3 -107 -20 -127 l-19 -24 -1 121 c0 122 2 134 27 134 10 0 13
-24 13 -104z m133 59 c20 -14 37 -27 37 -28 0 -2 -11 -18 -25 -37 -21 -28 -25
-46 -25 -99 l-1 -66 -45 -27 c-25 -16 -49 -28 -54 -28 -5 0 -33 13 -62 29
l-53 29 -5 61 c-5 61 -7 64 -63 102 -5 4 -6 12 -3 18 7 10 79 51 91 51 3 0 5
-49 5 -109 0 -84 3 -111 15 -121 8 -7 15 -8 15 -2 0 5 9 12 20 15 16 4 20 0
20 -19 0 -28 2 -29 40 -9 47 24 53 46 46 162 -4 57 -4 103 1 103 5 0 25 -11
46 -25z m-303 -160 l-25 -15 28 6 c25 6 27 4 27 -27 -1 -32 -4 -36 -68 -64
-91 -40 -186 -101 -262 -169 -35 -31 -65 -54 -68 -52 -11 11 64 119 116 167
l57 53 -45 -26 c-25 -15 -44 -32 -42 -38 1 -6 -2 -8 -8 -5 -6 4 -18 -1 -25
-11 -8 -11 -15 -14 -15 -8 0 7 -8 15 -17 19 -34 12 -178 37 -287 49 l-108 12
43 -40 c24 -22 67 -60 94 -85 28 -26 75 -66 105 -91 30 -24 59 -47 64 -52 6
-5 1 -20 -12 -38 -12 -16 -22 -42 -22 -57 0 -35 -10 -73 -19 -73 -4 0 -18 19
-31 43 -26 47 -109 163 -155 217 -68 79 -202 214 -230 231 -36 23 -30 23 60 3
295 -63 491 -87 549 -65 16 7 26 7 28 0 2 -6 28 6 58 26 29 20 76 46 104 59
28 12 62 27 76 33 37 17 59 15 30 -2z m438 -16 c43 -16 104 -48 138 -70 57
-37 65 -39 135 -39 41 0 119 7 174 15 55 7 136 18 180 24 44 7 107 19 141 27
100 26 107 17 33 -46 -136 -117 -359 -361 -359 -394 0 -9 -3 -16 -7 -16 -11 1
-66 115 -62 127 2 5 40 40 84 78 44 38 82 72 85 75 3 3 30 25 60 50 30 25 64
53 75 64 20 18 19 18 -20 13 -22 -4 -114 -13 -205 -22 -91 -9 -175 -18 -188
-21 l-23 -5 21 -26 c40 -51 19 -46 -37 8 -53 51 -160 125 -169 117 -2 -2 27
-24 64 -48 47 -32 84 -68 126 -123 83 -111 63 -118 -54 -18 -65 55 -125 95
-197 131 -95 48 -103 54 -103 81 0 27 3 29 28 24 l27 -5 -30 14 c-57 28 4 17
83 -15z m-317 -104 c27 -24 44 -32 56 -28 16 6 16 5 4 -10 -7 -9 -18 -17 -24
-17 -13 0 -87 70 -87 82 0 15 12 8 51 -27z m167 3 c-2 -12 -13 -28 -26 -34
-13 -6 -31 -22 -39 -34 -9 -13 -11 -20 -5 -16 25 15 9 -10 -24 -37 l-34 -29 0
27 c0 19 17 44 57 86 60 64 76 72 71 37z m-280 -72 c-10 -7 -15 -16 -12 -19 4
-4 18 3 32 13 30 24 50 25 74 3 31 -28 23 -72 -21 -110 -22 -18 -42 -41 -45
-51 -3 -9 -10 -36 -16 -59 -6 -26 -25 -56 -47 -78 -20 -19 -32 -35 -26 -35 23
0 79 75 99 132 23 69 56 102 72 71 4 -10 7 -71 4 -135 l-4 -118 -39 0 c-22 0
-68 -13 -106 -30 -36 -16 -74 -30 -84 -30 -10 0 -42 -9 -71 -20 -141 -55 -153
-65 -133 -115 10 -21 12 -50 8 -84 -7 -62 8 -101 48 -125 28 -17 33 -17 114 3
118 30 126 33 182 90 28 28 53 48 57 44 3 -3 6 11 6 33 0 21 7 52 15 68 19 35
20 56 2 32 -13 -17 -15 -17 -42 8 -16 15 -39 29 -52 32 -48 13 -11 53 49 54
30 0 41 -5 55 -27 32 -52 52 -63 94 -57 41 7 53 -8 27 -34 -9 -9 -7 -22 7 -54
33 -74 74 -126 129 -163 54 -35 55 -36 147 -33 88 3 93 4 113 31 17 23 21 40
18 94 -1 36 3 81 10 100 12 34 11 36 -17 59 -73 59 -288 86 -370 47 -19 -9
-37 -14 -40 -11 -4 3 2 23 12 44 17 36 22 40 80 50 63 11 81 20 118 62 23 25
117 47 143 33 38 -20 64 -61 69 -105 4 -29 13 -51 27 -63 21 -18 21 -18 4 3
-10 11 -18 36 -18 55 -1 19 -7 45 -15 59 -8 14 -14 32 -15 41 0 22 30 33 45
17 22 -24 47 -102 54 -173 7 -57 4 -80 -11 -125 -24 -68 -20 -141 10 -198 l22
-42 -51 -47 c-28 -27 -62 -55 -75 -63 -21 -13 -25 -12 -49 10 -22 20 -37 25
-80 25 -62 0 -103 -24 -118 -69 -13 -40 -2 -43 28 -8 36 43 85 58 124 38 46
-24 46 -34 -2 -76 -68 -60 -77 -87 -77 -233 0 -80 -5 -136 -13 -156 -12 -28
-13 -18 -9 86 5 130 -8 147 -19 25 -4 -42 -13 -102 -21 -132 -13 -54 -13 -53
-18 110 -3 91 -7 163 -8 160 -2 -4 -23 -235 -33 -360 -2 -29 -17 36 -18 79 -1
60 -21 171 -30 171 -5 0 -11 -64 -15 -142 -4 -79 -11 -165 -16 -193 l-7 -50
-2 60 c-1 61 -26 268 -38 315 l-6 25 -7 -25 c-5 -14 -8 -82 -9 -152 -1 -71 -5
-128 -10 -128 -11 0 -14 13 -41 174 -11 66 -22 122 -25 124 -3 3 -5 -86 -5
-198 0 -112 -2 -201 -4 -199 -2 2 -9 42 -15 89 -6 47 -19 123 -29 170 l-17 85
-5 -120 c-4 -104 -6 -114 -13 -70 -4 28 -19 95 -32 150 l-24 100 6 -91 c8
-121 -11 -133 -26 -17 -15 119 -31 130 -32 23 -1 -121 -16 -60 -27 108 -7 116
-11 135 -34 170 -14 21 -40 45 -57 52 -28 11 -43 30 -23 30 27 0 98 -69 129
-127 10 -18 21 -33 25 -33 11 0 21 85 13 118 -13 61 -73 92 -132 67 -37 -15
-37 -15 -20 2 24 24 102 23 145 -2 17 -11 38 -33 46 -49 9 -17 16 -24 16 -15
0 27 -44 83 -80 102 -45 24 -116 18 -159 -12 -17 -13 -35 -21 -40 -19 -17 6
-131 118 -131 128 0 6 9 28 20 50 23 46 26 114 5 150 -8 14 -14 42 -15 62 0
35 33 150 50 173 4 6 13 35 20 65 16 71 40 118 79 154 41 39 232 165 251 165
12 0 12 -2 -2 -13z m389 -25 c71 -24 136 -59 180 -96 6 -5 30 -23 52 -40 54
-38 44 -48 -85 -86 -75 -22 -106 -36 -126 -59 -18 -19 -44 -34 -74 -40 -26 -6
-55 -15 -65 -21 -17 -9 -19 -6 -19 29 0 47 13 58 110 92 36 13 69 27 74 32 32
28 -109 -20 -155 -53 l-27 -19 -4 76 c-2 42 0 78 5 81 4 2 7 33 7 69 0 60 1
64 23 64 12 0 59 -13 104 -29z m-727 5 c0 -2 -8 -10 -17 -17 -16 -13 -17 -12
-4 4 13 16 21 21 21 13z m561 -64 c-10 -19 -60 -57 -66 -50 -9 9 22 54 45 65
30 15 35 11 21 -15z m549 -58 c0 -3 -7 -1 -15 6 -8 7 -15 17 -15 22 0 5 7 3
15 -6 8 -8 15 -18 15 -22z m-556 -189 c-1 -99 -3 -110 -20 -114 -11 -2 -22 -7
-25 -12 -3 -5 -14 0 -25 12 -14 16 -15 23 -6 26 9 3 12 36 12 118 0 112 0 114
28 135 l27 22 5 -39 c3 -21 5 -87 4 -148z m-637 17 c36 -95 36 -99 -1 -37 -19
33 -36 68 -36 78 0 33 15 16 37 -41z m1380 -264 c-7 -143 -28 -241 -73 -336
-25 -53 -26 -61 -23 -198 l4 -143 -35 -38 c-20 -21 -67 -65 -105 -98 -38 -33
-78 -69 -88 -80 -18 -20 -18 -20 -6 5 6 14 57 69 111 123 67 66 98 103 94 113
-3 8 -38 30 -78 48 -67 31 -71 34 -46 41 30 8 38 28 38 107 0 47 4 60 23 75
12 10 32 31 45 47 15 20 22 24 22 12 0 -9 6 -16 13 -16 17 0 71 163 65 195 -3
14 -2 22 2 20 11 -7 18 27 26 128 7 92 0 106 -28 60 -10 -16 -18 -22 -18 -15
0 16 43 82 54 82 5 0 6 -56 3 -132z m-30 -10 c-2 -13 -4 -3 -4 22 0 25 2 35 4
23 2 -13 2 -33 0 -45z m-1468 -33 c0 -11 -7 0 -15 25 -17 56 -17 64 1 25 8
-16 14 -39 14 -50z m-139 -45 c0 -14 -31 -41 -43 -37 -6 2 -15 11 -21 21 -15
24 18 50 45 35 11 -5 19 -14 19 -19z m1780 15 c19 -23 4 -47 -27 -43 -31 3
-44 35 -21 49 19 13 34 11 48 -6z m-1537 -295 c24 -19 26 -28 29 -103 l3 -82
43 -9 c23 -6 42 -12 42 -15 0 -8 -138 -71 -156 -71 -11 0 -14 25 -14 143 0
169 3 176 53 137z m137 -447 c24 -49 74 -126 110 -173 146 -187 281 -413 268
-450 -3 -11 -38 40 -177 260 -8 14 -26 48 -40 75 -31 65 -101 168 -109 161 -4
-5 -121 217 -122 233 0 2 6 -1 13 -8 8 -6 33 -50 57 -98z m836 -218 c-9 -13
-41 -65 -71 -115 -30 -49 -75 -120 -99 -157 -24 -38 -52 -85 -62 -106 -14 -30
-20 -34 -27 -22 -6 11 3 36 29 83 39 71 123 199 158 243 12 14 34 42 50 62 32
42 47 50 22 12z"/>
<path d="M2144 3245 c-24 -18 -7 -19 26 0 16 9 19 14 9 15 -8 0 -24 -7 -35
-15z"/>
<path d="M2084 3214 c-18 -14 -18 -14 6 -3 31 14 36 19 24 19 -6 0 -19 -7 -30
-16z"/>
<path d="M2039 3183 c-13 -16 -12 -17 4 -4 16 13 21 21 13 21 -2 0 -10 -8 -17
-17z"/>
<path d="M2620 3252 c8 -5 26 -13 40 -16 17 -5 20 -4 10 2 -8 5 -26 13 -40 16
-17 5 -20 4 -10 -2z"/>
<path d="M2146 2993 c-6 -14 -5 -15 5 -6 7 7 10 15 7 18 -3 3 -9 -2 -12 -12z"/>
<path d="M2097 2908 c-19 -35 -40 -81 -46 -103 -8 -30 -29 -57 -86 -110 -41
-38 -75 -73 -75 -78 0 -9 88 53 125 88 37 35 135 248 121 263 -2 2 -20 -25
-39 -60z"/>
<path d="M2360 2443 c0 -10 -14 -45 -30 -78 -23 -46 -28 -68 -24 -94 4 -22 2
-36 -6 -41 -18 -11 -25 -96 -10 -115 7 -8 25 -15 41 -15 38 0 64 38 55 81 -5
27 -4 30 9 19 8 -7 18 -30 21 -52 9 -51 33 -64 68 -37 21 17 26 29 26 65 0 25
-5 55 -11 66 -6 12 -13 41 -16 66 -2 24 -13 58 -24 76 -10 17 -19 41 -19 54 0
40 -19 23 -26 -23 -9 -63 -24 -66 -24 -6 0 39 -4 51 -15 51 -8 0 -15 -8 -15
-17z"/>
<path d="M2676 2124 c-34 -32 -52 -73 -59 -134 -3 -25 -4 -37 -1 -27 3 9 12
17 20 17 8 0 14 5 14 11 0 15 41 71 47 65 3 -3 24 10 46 29 22 19 45 35 51 35
22 1 -40 29 -64 30 -14 0 -38 -12 -54 -26z"/>
<path d="M2515 2060 c-19 -36 -19 -46 -1 -53 11 -4 15 6 18 39 2 24 2 44 1 44
-1 0 -9 -13 -18 -30z"/>
<path d="M2377 2047 c-3 -8 -1 -20 4 -28 6 -10 9 -7 9 14 0 29 -5 35 -13 14z"/>
<path d="M3070 3436 c0 -2 14 -14 30 -26 17 -12 30 -19 30 -16 0 2 -13 14 -30
26 -16 12 -30 19 -30 16z"/>
<path d="M3190 3346 c0 -2 8 -10 18 -17 15 -13 16 -12 3 4 -13 16 -21 21 -21
13z"/>
<path d="M3245 3300 c10 -11 20 -20 23 -20 3 0 -3 9 -13 20 -10 11 -20 20 -23
20 -3 0 3 -9 13 -20z"/>
<path d="M3440 3029 c0 -3 22 -48 48 -100 46 -90 86 -201 116 -319 8 -30 15
-46 15 -35 2 51 -68 265 -120 370 -27 53 -59 99 -59 84z"/>
<path d="M1226 2668 c-3 -13 -5 -32 -5 -43 1 -11 5 -2 10 19 10 42 6 62 -5 24z"/>
<path d="M1213 2540 c0 -36 2 -50 4 -32 2 17 2 47 0 65 -2 17 -4 3 -4 -33z"/>
<path d="M3623 2515 c0 -22 2 -30 4 -17 2 12 2 30 0 40 -3 9 -5 -1 -4 -23z"/>
<path d="M3634 2360 c0 -58 1 -81 3 -52 2 28 2 76 0 105 -2 28 -3 5 -3 -53z"/>
<path d="M1665 2301 c8 -64 37 -161 48 -161 5 0 7 8 3 18 -3 9 -17 55 -31 102
-18 60 -24 72 -20 41z"/>
<path d="M1176 2225 c9 -114 50 -250 124 -400 72 -150 133 -238 255 -371 90
-98 258 -217 396 -282 130 -61 147 -60 24 2 -222 111 -455 321 -598 541 -108
164 -150 280 -201 555 -3 14 -2 -6 0 -45z"/>
<path d="M3620 2213 c-1 -123 -99 -375 -216 -555 -51 -77 -168 -214 -242 -282
-25 -22 -50 -46 -56 -51 -22 -21 -112 -83 -153 -105 -24 -13 -41 -25 -39 -27
6 -6 148 79 201 119 78 61 162 145 230 233 68 87 171 264 199 342 10 26 21 57
26 68 34 76 75 295 56 295 -3 0 -6 -17 -6 -37z"/>
<path d="M2875 1182 c-17 -15 -116 -50 -190 -68 -96 -23 -99 -24 -93 -29 14
-14 308 82 308 100 0 8 -15 6 -25 -3z"/>
<path d="M2115 1105 c17 -8 39 -14 50 -14 13 0 8 5 -15 14 -46 18 -74 17 -35
0z"/>
<path d="M2197 1097 c-3 -9 1 -18 9 -21 16 -6 18 2 5 22 -7 11 -9 11 -14 -1z"/>
</g>
</svg>
